<svg width="7" height="14" viewBox="0 0 7 14" fill="none" xmlns="http://www.w3.org/2000/svg">
<path d="M0.774167 13.4811C0.560841 13.4811 0.378481 13.4071 0.227089 13.2592C0.0756963 13.1112 0 12.9306 0 12.7172C0 12.5039 0.079137 12.3181 0.237411 12.1598L4.40759 7.99998L0.237411 3.84013C0.079137 3.68185 0 3.49605 0 3.28273C0 3.0694 0.0756963 2.88876 0.227089 2.74081C0.378481 2.59286 0.560841 2.51888 0.774167 2.51888C0.973729 2.51888 1.15265 2.59114 1.31092 2.73565L6.01785 7.42194C6.18301 7.57333 6.26559 7.76601 6.26559 7.99998C6.26559 8.22019 6.18301 8.41287 6.01785 8.57802L1.31092 13.2643C1.16641 13.4088 0.987492 13.4811 0.774167 13.4811Z" fill="#0066CC"/>
</svg>
