<svg width="5" height="10" viewBox="0 0 5 10" fill="none" xmlns="http://www.w3.org/2000/svg">
<path d="M0.624243 9.35915C0.454584 9.35915 0.309553 9.30031 0.18915 9.18265C0.0687465 9.06498 0.00854492 8.92132 0.00854492 8.75166C0.00854492 8.582 0.071483 8.43423 0.197359 8.30835L3.51392 5L0.197359 1.69165C0.071483 1.56577 0.00854492 1.41801 0.00854492 1.24835C0.00854492 1.07869 0.0687465 0.935026 0.18915 0.817359C0.309553 0.699692 0.454584 0.640859 0.624243 0.640859C0.782957 0.640859 0.925251 0.698324 1.05113 0.813254L4.79457 4.54028C4.92592 4.66068 4.9916 4.81392 4.9916 5C4.9916 5.17513 4.92592 5.32837 4.79457 5.45972L1.05113 9.18675C0.936197 9.30168 0.793902 9.35915 0.624243 9.35915Z" fill="#FBFBFD"/>
</svg>
